<mxfile host="Electron" agent="Mozilla/5.0 (Windows NT 10.0; Win64; x64) AppleWebKit/537.36 (KHTML, like Gecko) draw.io/27.0.5 Chrome/134.0.6998.205 Electron/35.3.0 Safari/537.36" version="27.0.5">
  <diagram name="Página-1" id="aJETu7qsYChSSG2S3avz">
    <mxGraphModel dx="2505" dy="989" grid="1" gridSize="10" guides="1" tooltips="1" connect="0" arrows="1" fold="1" page="1" pageScale="1" pageWidth="827" pageHeight="1169" math="0" shadow="0">
      <root>
        <mxCell id="0" />
        <mxCell id="1" parent="0" />
        <mxCell id="0K9JD2yo25mYzbsArlmn-6" value="" style="shape=process;whiteSpace=wrap;html=1;backgroundOutline=1;" vertex="1" parent="1">
          <mxGeometry x="-336" y="532" width="120" height="60" as="geometry" />
        </mxCell>
        <mxCell id="0K9JD2yo25mYzbsArlmn-5" value="" style="shape=process;whiteSpace=wrap;html=1;backgroundOutline=1;" vertex="1" parent="1">
          <mxGeometry x="-265" y="767" width="120" height="60" as="geometry" />
        </mxCell>
        <mxCell id="0K9JD2yo25mYzbsArlmn-4" value="" style="shape=process;whiteSpace=wrap;html=1;backgroundOutline=1;" vertex="1" parent="1">
          <mxGeometry x="-544" y="410" width="120" height="60" as="geometry" />
        </mxCell>
        <mxCell id="0K9JD2yo25mYzbsArlmn-3" value="" style="shape=process;whiteSpace=wrap;html=1;backgroundOutline=1;" vertex="1" parent="1">
          <mxGeometry x="-548" y="205" width="120" height="60" as="geometry" />
        </mxCell>
        <mxCell id="sAC3qodJ_5JCvwNrrxv2-2" value="" style="ellipse;whiteSpace=wrap;html=1;aspect=fixed;fillColor=#008a00;fontColor=#ffffff;strokeColor=#005700;" parent="1" vertex="1">
          <mxGeometry x="-760" y="10" width="80" height="80" as="geometry" />
        </mxCell>
        <mxCell id="sAC3qodJ_5JCvwNrrxv2-3" value="Problema&lt;div&gt;Funcionarios&lt;/div&gt;" style="text;html=1;align=center;verticalAlign=middle;whiteSpace=wrap;rounded=0;" parent="1" vertex="1">
          <mxGeometry x="-750" y="35" width="60" height="30" as="geometry" />
        </mxCell>
        <mxCell id="yioB09gPAsbij5UVEm86-2" style="edgeStyle=orthogonalEdgeStyle;rounded=0;orthogonalLoop=1;jettySize=auto;html=1;" parent="1" source="sAC3qodJ_5JCvwNrrxv2-7" edge="1">
          <mxGeometry relative="1" as="geometry">
            <mxPoint x="-550" y="560" as="targetPoint" />
            <Array as="points">
              <mxPoint x="-710" y="560" />
            </Array>
          </mxGeometry>
        </mxCell>
        <mxCell id="sAC3qodJ_5JCvwNrrxv2-7" value="" style="rhombus;whiteSpace=wrap;html=1;" parent="1" vertex="1">
          <mxGeometry x="-780" y="375" width="128" height="130" as="geometry" />
        </mxCell>
        <mxCell id="sAC3qodJ_5JCvwNrrxv2-10" value="" style="edgeStyle=orthogonalEdgeStyle;rounded=0;orthogonalLoop=1;jettySize=auto;html=1;exitX=1;exitY=0.5;exitDx=0;exitDy=0;" parent="1" source="sAC3qodJ_5JCvwNrrxv2-7" edge="1">
          <mxGeometry relative="1" as="geometry">
            <mxPoint x="-548" y="440" as="targetPoint" />
          </mxGeometry>
        </mxCell>
        <mxCell id="sAC3qodJ_5JCvwNrrxv2-6" value="dispositivo Esta conectado na internet?" style="text;html=1;align=center;verticalAlign=middle;whiteSpace=wrap;rounded=0;" parent="1" vertex="1">
          <mxGeometry x="-759" y="425" width="88" height="30" as="geometry" />
        </mxCell>
        <mxCell id="sAC3qodJ_5JCvwNrrxv2-76" style="edgeStyle=none;rounded=0;orthogonalLoop=1;jettySize=auto;html=1;exitX=1;exitY=0.5;exitDx=0;exitDy=0;entryX=0;entryY=0.5;entryDx=0;entryDy=0;" parent="1" target="sAC3qodJ_5JCvwNrrxv2-68" edge="1">
          <mxGeometry relative="1" as="geometry">
            <mxPoint x="-428" y="439.9999999999998" as="sourcePoint" />
          </mxGeometry>
        </mxCell>
        <mxCell id="sAC3qodJ_5JCvwNrrxv2-11" value="se conecte" style="text;html=1;align=center;verticalAlign=middle;whiteSpace=wrap;rounded=0;" parent="1" vertex="1">
          <mxGeometry x="-514" y="422" width="60" height="30" as="geometry" />
        </mxCell>
        <mxCell id="sAC3qodJ_5JCvwNrrxv2-14" value="Não" style="text;html=1;align=center;verticalAlign=middle;whiteSpace=wrap;rounded=0;" parent="1" vertex="1">
          <mxGeometry x="-628" y="415" width="60" height="30" as="geometry" />
        </mxCell>
        <mxCell id="sAC3qodJ_5JCvwNrrxv2-20" value="" style="rhombus;whiteSpace=wrap;html=1;" parent="1" vertex="1">
          <mxGeometry x="-784" y="170" width="128" height="130" as="geometry" />
        </mxCell>
        <mxCell id="sAC3qodJ_5JCvwNrrxv2-22" value="dispositivo Esta conectado na energia?" style="text;html=1;align=center;verticalAlign=middle;whiteSpace=wrap;rounded=0;" parent="1" vertex="1">
          <mxGeometry x="-763" y="224" width="88" height="30" as="geometry" />
        </mxCell>
        <mxCell id="sAC3qodJ_5JCvwNrrxv2-25" value="" style="endArrow=classic;html=1;rounded=0;entryX=0.5;entryY=0;entryDx=0;entryDy=0;" parent="1" source="sAC3qodJ_5JCvwNrrxv2-20" target="sAC3qodJ_5JCvwNrrxv2-7" edge="1">
          <mxGeometry width="50" height="50" relative="1" as="geometry">
            <mxPoint x="-718" y="335" as="sourcePoint" />
            <mxPoint x="-668" y="335" as="targetPoint" />
          </mxGeometry>
        </mxCell>
        <mxCell id="sAC3qodJ_5JCvwNrrxv2-26" value="" style="endArrow=classic;html=1;rounded=0;exitX=0.5;exitY=1;exitDx=0;exitDy=0;entryX=0.5;entryY=0;entryDx=0;entryDy=0;" parent="1" source="sAC3qodJ_5JCvwNrrxv2-2" target="sAC3qodJ_5JCvwNrrxv2-20" edge="1">
          <mxGeometry width="50" height="50" relative="1" as="geometry">
            <mxPoint x="-730" y="330" as="sourcePoint" />
            <mxPoint x="-680" y="280" as="targetPoint" />
          </mxGeometry>
        </mxCell>
        <mxCell id="sAC3qodJ_5JCvwNrrxv2-27" value="" style="edgeStyle=orthogonalEdgeStyle;rounded=0;orthogonalLoop=1;jettySize=auto;html=1;exitX=1;exitY=0.5;exitDx=0;exitDy=0;" parent="1" edge="1">
          <mxGeometry relative="1" as="geometry">
            <mxPoint x="-654.14" y="235" as="sourcePoint" />
            <mxPoint x="-550.14" y="235" as="targetPoint" />
          </mxGeometry>
        </mxCell>
        <mxCell id="sAC3qodJ_5JCvwNrrxv2-77" style="edgeStyle=none;rounded=0;orthogonalLoop=1;jettySize=auto;html=1;exitX=1;exitY=0.5;exitDx=0;exitDy=0;entryX=-0.005;entryY=0.529;entryDx=0;entryDy=0;entryPerimeter=0;" parent="1" target="JLshPI0EMPb4EAfvUQ8p-2" edge="1">
          <mxGeometry relative="1" as="geometry">
            <mxPoint x="-430.1399999999999" y="235" as="sourcePoint" />
          </mxGeometry>
        </mxCell>
        <mxCell id="sAC3qodJ_5JCvwNrrxv2-29" value="se conecte" style="text;html=1;align=center;verticalAlign=middle;whiteSpace=wrap;rounded=0;" parent="1" vertex="1">
          <mxGeometry x="-518" y="218" width="60" height="30" as="geometry" />
        </mxCell>
        <mxCell id="sAC3qodJ_5JCvwNrrxv2-31" value="Não" style="text;html=1;align=center;verticalAlign=middle;whiteSpace=wrap;rounded=0;" parent="1" vertex="1">
          <mxGeometry x="-630.14" y="210" width="60" height="30" as="geometry" />
        </mxCell>
        <mxCell id="sAC3qodJ_5JCvwNrrxv2-48" value="Sim" style="text;html=1;align=center;verticalAlign=middle;whiteSpace=wrap;rounded=0;" parent="1" vertex="1">
          <mxGeometry x="-723" y="322" width="60" height="30" as="geometry" />
        </mxCell>
        <mxCell id="sAC3qodJ_5JCvwNrrxv2-49" value="Sim" style="text;html=1;align=center;verticalAlign=middle;whiteSpace=wrap;rounded=0;" parent="1" vertex="1">
          <mxGeometry x="-671" y="535" width="60" height="30" as="geometry" />
        </mxCell>
        <mxCell id="sAC3qodJ_5JCvwNrrxv2-56" value="" style="edgeStyle=none;rounded=0;orthogonalLoop=1;jettySize=auto;html=1;" parent="1" source="sAC3qodJ_5JCvwNrrxv2-52" edge="1">
          <mxGeometry relative="1" as="geometry">
            <mxPoint x="-336" y="564.9999999999998" as="targetPoint" />
          </mxGeometry>
        </mxCell>
        <mxCell id="sAC3qodJ_5JCvwNrrxv2-52" value="" style="rhombus;whiteSpace=wrap;html=1;" parent="1" vertex="1">
          <mxGeometry x="-548" y="500" width="128" height="130" as="geometry" />
        </mxCell>
        <mxCell id="sAC3qodJ_5JCvwNrrxv2-53" value="Esta logado?" style="text;html=1;align=center;verticalAlign=middle;whiteSpace=wrap;rounded=0;" parent="1" vertex="1">
          <mxGeometry x="-534.14" y="555" width="88" height="30" as="geometry" />
        </mxCell>
        <mxCell id="sAC3qodJ_5JCvwNrrxv2-69" style="edgeStyle=none;rounded=0;orthogonalLoop=1;jettySize=auto;html=1;exitX=0.5;exitY=0;exitDx=0;exitDy=0;entryX=0.5;entryY=1;entryDx=0;entryDy=0;" parent="1" target="sAC3qodJ_5JCvwNrrxv2-68" edge="1">
          <mxGeometry relative="1" as="geometry">
            <mxPoint x="-276" y="534.9999999999998" as="sourcePoint" />
          </mxGeometry>
        </mxCell>
        <mxCell id="sAC3qodJ_5JCvwNrrxv2-62" value="Faça login" style="text;html=1;align=center;verticalAlign=middle;whiteSpace=wrap;rounded=0;" parent="1" vertex="1">
          <mxGeometry x="-320" y="544" width="88" height="30" as="geometry" />
        </mxCell>
        <mxCell id="sAC3qodJ_5JCvwNrrxv2-64" value="Não" style="text;html=1;align=center;verticalAlign=middle;whiteSpace=wrap;rounded=0;" parent="1" vertex="1">
          <mxGeometry x="-413" y="565" width="60" height="30" as="geometry" />
        </mxCell>
        <mxCell id="rZjYY_zkdtNfCv7M0KBm-5" value="" style="edgeStyle=orthogonalEdgeStyle;rounded=0;orthogonalLoop=1;jettySize=auto;html=1;" parent="1" target="rZjYY_zkdtNfCv7M0KBm-4" edge="1">
          <mxGeometry relative="1" as="geometry">
            <mxPoint x="-146" y="797" as="sourcePoint" />
          </mxGeometry>
        </mxCell>
        <mxCell id="sAC3qodJ_5JCvwNrrxv2-67" value="&lt;div&gt;Aparece&lt;div&gt;os graficos e&amp;nbsp;&lt;/div&gt;&lt;div&gt;KPI?&lt;/div&gt;&lt;/div&gt;" style="rhombus;whiteSpace=wrap;html=1;" parent="1" vertex="1">
          <mxGeometry x="-556" y="732" width="128" height="130" as="geometry" />
        </mxCell>
        <mxCell id="sAC3qodJ_5JCvwNrrxv2-75" style="edgeStyle=none;rounded=0;orthogonalLoop=1;jettySize=auto;html=1;exitX=1;exitY=0.5;exitDx=0;exitDy=0;entryX=0.01;entryY=0.465;entryDx=0;entryDy=0;entryPerimeter=0;" parent="1" source="sAC3qodJ_5JCvwNrrxv2-68" target="sAC3qodJ_5JCvwNrrxv2-78" edge="1">
          <mxGeometry relative="1" as="geometry">
            <mxPoint x="-130" y="345" as="targetPoint" />
          </mxGeometry>
        </mxCell>
        <mxCell id="JLshPI0EMPb4EAfvUQ8p-3" value="" style="edgeStyle=orthogonalEdgeStyle;rounded=0;orthogonalLoop=1;jettySize=auto;html=1;" parent="1" source="sAC3qodJ_5JCvwNrrxv2-68" target="JLshPI0EMPb4EAfvUQ8p-2" edge="1">
          <mxGeometry relative="1" as="geometry" />
        </mxCell>
        <mxCell id="sAC3qodJ_5JCvwNrrxv2-68" value="" style="rhombus;whiteSpace=wrap;html=1;" parent="1" vertex="1">
          <mxGeometry x="-340" y="375" width="128" height="130" as="geometry" />
        </mxCell>
        <mxCell id="sAC3qodJ_5JCvwNrrxv2-70" value="Funcionou?" style="text;html=1;align=center;verticalAlign=middle;whiteSpace=wrap;rounded=0;" parent="1" vertex="1">
          <mxGeometry x="-320" y="425" width="88" height="30" as="geometry" />
        </mxCell>
        <mxCell id="sAC3qodJ_5JCvwNrrxv2-78" value="" style="ellipse;whiteSpace=wrap;html=1;aspect=fixed;fillColor=#a20025;fontColor=#ffffff;strokeColor=#6F0000;" parent="1" vertex="1">
          <mxGeometry x="-86" y="400" width="80" height="80" as="geometry" />
        </mxCell>
        <mxCell id="sAC3qodJ_5JCvwNrrxv2-79" value="&lt;font style=&quot;color: rgb(255, 255, 255);&quot;&gt;Fim&lt;/font&gt;" style="text;html=1;align=center;verticalAlign=middle;whiteSpace=wrap;rounded=0;" parent="1" vertex="1">
          <mxGeometry x="-76" y="425" width="60" height="30" as="geometry" />
        </mxCell>
        <mxCell id="sAC3qodJ_5JCvwNrrxv2-80" value="Não" style="text;html=1;align=center;verticalAlign=middle;whiteSpace=wrap;rounded=0;" parent="1" vertex="1">
          <mxGeometry x="-390" y="760" width="60" height="30" as="geometry" />
        </mxCell>
        <mxCell id="sAC3qodJ_5JCvwNrrxv2-81" value="Não" style="text;html=1;align=center;verticalAlign=middle;whiteSpace=wrap;rounded=0;" parent="1" vertex="1">
          <mxGeometry x="-280" y="110" width="60" height="30" as="geometry" />
        </mxCell>
        <mxCell id="rZjYY_zkdtNfCv7M0KBm-1" value="Sim" style="text;html=1;align=center;verticalAlign=middle;whiteSpace=wrap;rounded=0;" parent="1" vertex="1">
          <mxGeometry x="-180" y="410" width="60" height="30" as="geometry" />
        </mxCell>
        <mxCell id="JLshPI0EMPb4EAfvUQ8p-20" value="" style="edgeStyle=orthogonalEdgeStyle;rounded=0;orthogonalLoop=1;jettySize=auto;html=1;entryX=0.004;entryY=0.575;entryDx=0;entryDy=0;entryPerimeter=0;" parent="1" source="rZjYY_zkdtNfCv7M0KBm-4" target="0K9JD2yo25mYzbsArlmn-8" edge="1">
          <mxGeometry relative="1" as="geometry">
            <mxPoint x="230" y="702.0588235294119" as="targetPoint" />
          </mxGeometry>
        </mxCell>
        <mxCell id="rZjYY_zkdtNfCv7M0KBm-4" value="funcionou?" style="rhombus;whiteSpace=wrap;html=1;" parent="1" vertex="1">
          <mxGeometry x="-100" y="732" width="128" height="130" as="geometry" />
        </mxCell>
        <mxCell id="rZjYY_zkdtNfCv7M0KBm-12" value="" style="edgeStyle=orthogonalEdgeStyle;rounded=0;orthogonalLoop=1;jettySize=auto;html=1;" parent="1" source="sAC3qodJ_5JCvwNrrxv2-67" edge="1">
          <mxGeometry relative="1" as="geometry">
            <mxPoint x="-372" y="797" as="sourcePoint" />
            <mxPoint x="-266" y="797" as="targetPoint" />
          </mxGeometry>
        </mxCell>
        <mxCell id="rZjYY_zkdtNfCv7M0KBm-13" value="Limpe o Cache e reinicie o navegador" style="text;html=1;align=center;verticalAlign=middle;whiteSpace=wrap;rounded=0;" parent="1" vertex="1">
          <mxGeometry x="-250" y="782" width="90" height="30" as="geometry" />
        </mxCell>
        <mxCell id="rZjYY_zkdtNfCv7M0KBm-17" value="Sim" style="text;html=1;align=center;verticalAlign=middle;whiteSpace=wrap;rounded=0;" parent="1" vertex="1">
          <mxGeometry x="-86" y="642" width="60" height="30" as="geometry" />
        </mxCell>
        <mxCell id="JLshPI0EMPb4EAfvUQ8p-7" style="edgeStyle=orthogonalEdgeStyle;rounded=0;orthogonalLoop=1;jettySize=auto;html=1;" parent="1" source="JLshPI0EMPb4EAfvUQ8p-2" edge="1">
          <mxGeometry relative="1" as="geometry">
            <mxPoint x="-50" y="390" as="targetPoint" />
          </mxGeometry>
        </mxCell>
        <mxCell id="JLshPI0EMPb4EAfvUQ8p-2" value="" style="rhombus;whiteSpace=wrap;html=1;" parent="1" vertex="1">
          <mxGeometry x="-340" y="168" width="128" height="130" as="geometry" />
        </mxCell>
        <mxCell id="JLshPI0EMPb4EAfvUQ8p-4" value="Funcionou?" style="text;html=1;align=center;verticalAlign=middle;whiteSpace=wrap;rounded=0;" parent="1" vertex="1">
          <mxGeometry x="-320" y="218" width="88" height="30" as="geometry" />
        </mxCell>
        <mxCell id="JLshPI0EMPb4EAfvUQ8p-5" style="edgeStyle=orthogonalEdgeStyle;rounded=0;orthogonalLoop=1;jettySize=auto;html=1;entryX=1.05;entryY=0.533;entryDx=0;entryDy=0;entryPerimeter=0;" parent="1" source="JLshPI0EMPb4EAfvUQ8p-2" target="sAC3qodJ_5JCvwNrrxv2-2" edge="1">
          <mxGeometry relative="1" as="geometry">
            <Array as="points">
              <mxPoint x="-276" y="53" />
            </Array>
          </mxGeometry>
        </mxCell>
        <mxCell id="JLshPI0EMPb4EAfvUQ8p-6" value="Não" style="text;html=1;align=center;verticalAlign=middle;whiteSpace=wrap;rounded=0;" parent="1" vertex="1">
          <mxGeometry x="-260" y="322" width="60" height="30" as="geometry" />
        </mxCell>
        <mxCell id="JLshPI0EMPb4EAfvUQ8p-10" value="Sim" style="text;html=1;align=center;verticalAlign=middle;whiteSpace=wrap;rounded=0;" parent="1" vertex="1">
          <mxGeometry x="-180" y="205" width="60" height="30" as="geometry" />
        </mxCell>
        <mxCell id="JLshPI0EMPb4EAfvUQ8p-28" value="" style="edgeStyle=orthogonalEdgeStyle;rounded=0;orthogonalLoop=1;jettySize=auto;html=1;" parent="1" source="JLshPI0EMPb4EAfvUQ8p-23" edge="1">
          <mxGeometry relative="1" as="geometry">
            <mxPoint x="524" y="522" as="targetPoint" />
          </mxGeometry>
        </mxCell>
        <mxCell id="JLshPI0EMPb4EAfvUQ8p-23" value="Site está no ar&amp;nbsp;&lt;div&gt;corretamente?&lt;/div&gt;" style="rhombus;whiteSpace=wrap;html=1;" parent="1" vertex="1">
          <mxGeometry x="460" y="637" width="128" height="130" as="geometry" />
        </mxCell>
        <mxCell id="JLshPI0EMPb4EAfvUQ8p-24" style="edgeStyle=orthogonalEdgeStyle;rounded=0;orthogonalLoop=1;jettySize=auto;html=1;entryX=0.019;entryY=0.499;entryDx=0;entryDy=0;entryPerimeter=0;" parent="1" target="JLshPI0EMPb4EAfvUQ8p-23" edge="1">
          <mxGeometry relative="1" as="geometry">
            <mxPoint x="350" y="702.0588235294119" as="sourcePoint" />
          </mxGeometry>
        </mxCell>
        <mxCell id="JLshPI0EMPb4EAfvUQ8p-30" value="" style="edgeStyle=orthogonalEdgeStyle;rounded=0;orthogonalLoop=1;jettySize=auto;html=1;" parent="1" target="JLshPI0EMPb4EAfvUQ8p-29" edge="1">
          <mxGeometry relative="1" as="geometry">
            <mxPoint x="464" y="492" as="sourcePoint" />
          </mxGeometry>
        </mxCell>
        <mxCell id="0K9JD2yo25mYzbsArlmn-41" style="edgeStyle=orthogonalEdgeStyle;rounded=0;orthogonalLoop=1;jettySize=auto;html=1;entryX=0.999;entryY=0.33;entryDx=0;entryDy=0;entryPerimeter=0;" edge="1" parent="1" source="JLshPI0EMPb4EAfvUQ8p-29" target="0K9JD2yo25mYzbsArlmn-17">
          <mxGeometry relative="1" as="geometry">
            <mxPoint x="630" y="1070" as="targetPoint" />
            <Array as="points">
              <mxPoint x="270" y="311" />
              <mxPoint x="720" y="311" />
              <mxPoint x="720" y="1070" />
            </Array>
          </mxGeometry>
        </mxCell>
        <mxCell id="JLshPI0EMPb4EAfvUQ8p-29" value="funcionou?" style="rhombus;whiteSpace=wrap;html=1;" parent="1" vertex="1">
          <mxGeometry x="230" y="452" width="80" height="80" as="geometry" />
        </mxCell>
        <mxCell id="JLshPI0EMPb4EAfvUQ8p-31" style="edgeStyle=orthogonalEdgeStyle;rounded=0;orthogonalLoop=1;jettySize=auto;html=1;entryX=0.969;entryY=0.563;entryDx=0;entryDy=0;entryPerimeter=0;" parent="1" source="JLshPI0EMPb4EAfvUQ8p-29" target="sAC3qodJ_5JCvwNrrxv2-78" edge="1">
          <mxGeometry relative="1" as="geometry" />
        </mxCell>
        <mxCell id="JLshPI0EMPb4EAfvUQ8p-33" value="Sim" style="text;html=1;align=center;verticalAlign=middle;whiteSpace=wrap;rounded=0;" parent="1" vertex="1">
          <mxGeometry x="140" y="462" width="60" height="30" as="geometry" />
        </mxCell>
        <mxCell id="JLshPI0EMPb4EAfvUQ8p-34" value="Não" style="text;html=1;align=center;verticalAlign=middle;whiteSpace=wrap;rounded=0;" parent="1" vertex="1">
          <mxGeometry x="510" y="580" width="60" height="30" as="geometry" />
        </mxCell>
        <mxCell id="yioB09gPAsbij5UVEm86-3" style="edgeStyle=orthogonalEdgeStyle;rounded=0;orthogonalLoop=1;jettySize=auto;html=1;entryX=0.558;entryY=0.03;entryDx=0;entryDy=0;entryPerimeter=0;" parent="1" source="sAC3qodJ_5JCvwNrrxv2-52" target="sAC3qodJ_5JCvwNrrxv2-67" edge="1">
          <mxGeometry relative="1" as="geometry" />
        </mxCell>
        <mxCell id="yioB09gPAsbij5UVEm86-5" style="edgeStyle=orthogonalEdgeStyle;rounded=0;orthogonalLoop=1;jettySize=auto;html=1;" parent="1" source="rZjYY_zkdtNfCv7M0KBm-4" target="sAC3qodJ_5JCvwNrrxv2-78" edge="1">
          <mxGeometry relative="1" as="geometry" />
        </mxCell>
        <mxCell id="0K9JD2yo25mYzbsArlmn-7" value="Corrija e coloque no ar&lt;div&gt;&lt;br&gt;&lt;/div&gt;" style="shape=process;whiteSpace=wrap;html=1;backgroundOutline=1;" vertex="1" parent="1">
          <mxGeometry x="460" y="472" width="130" height="60" as="geometry" />
        </mxCell>
        <mxCell id="0K9JD2yo25mYzbsArlmn-8" value="Passa Requisição&amp;nbsp;&lt;div&gt;N2&lt;/div&gt;" style="shape=process;whiteSpace=wrap;html=1;backgroundOutline=1;" vertex="1" parent="1">
          <mxGeometry x="230" y="680" width="130" height="60" as="geometry" />
        </mxCell>
        <mxCell id="0K9JD2yo25mYzbsArlmn-10" value="&lt;font color=&quot;#ffffff&quot;&gt;Fim&lt;/font&gt;" style="ellipse;whiteSpace=wrap;html=1;aspect=fixed;fillColor=#a20025;fontColor=#ffffff;strokeColor=#6F0000;" vertex="1" parent="1">
          <mxGeometry x="-180" y="880" width="80" height="80" as="geometry" />
        </mxCell>
        <mxCell id="0K9JD2yo25mYzbsArlmn-12" value="Não" style="text;html=1;align=center;verticalAlign=middle;whiteSpace=wrap;rounded=0;" vertex="1" parent="1">
          <mxGeometry x="50" y="760" width="60" height="30" as="geometry" />
        </mxCell>
        <mxCell id="0K9JD2yo25mYzbsArlmn-17" value="Passa Requisição&amp;nbsp;&lt;div&gt;N3&lt;/div&gt;" style="shape=process;whiteSpace=wrap;html=1;backgroundOutline=1;" vertex="1" parent="1">
          <mxGeometry x="354" y="1050" width="120" height="60" as="geometry" />
        </mxCell>
        <mxCell id="0K9JD2yo25mYzbsArlmn-18" value="Tem Conexão&lt;div&gt;com&lt;/div&gt;&lt;div&gt;&amp;nbsp;Banco de Dados?&lt;/div&gt;" style="rhombus;whiteSpace=wrap;html=1;" vertex="1" parent="1">
          <mxGeometry x="360" y="806" width="138" height="140" as="geometry" />
        </mxCell>
        <mxCell id="0K9JD2yo25mYzbsArlmn-20" style="edgeStyle=orthogonalEdgeStyle;rounded=0;orthogonalLoop=1;jettySize=auto;html=1;entryX=1.002;entryY=0.504;entryDx=0;entryDy=0;entryPerimeter=0;" edge="1" parent="1" source="JLshPI0EMPb4EAfvUQ8p-23" target="0K9JD2yo25mYzbsArlmn-18">
          <mxGeometry relative="1" as="geometry" />
        </mxCell>
        <mxCell id="0K9JD2yo25mYzbsArlmn-25" value="Corrija Conexão&lt;div&gt;&lt;br&gt;&lt;/div&gt;" style="shape=process;whiteSpace=wrap;html=1;backgroundOutline=1;" vertex="1" parent="1">
          <mxGeometry x="49" y="850" width="130" height="60" as="geometry" />
        </mxCell>
        <mxCell id="0K9JD2yo25mYzbsArlmn-27" style="edgeStyle=orthogonalEdgeStyle;rounded=0;orthogonalLoop=1;jettySize=auto;html=1;entryX=1.007;entryY=0.448;entryDx=0;entryDy=0;entryPerimeter=0;" edge="1" parent="1" source="0K9JD2yo25mYzbsArlmn-18" target="0K9JD2yo25mYzbsArlmn-25">
          <mxGeometry relative="1" as="geometry" />
        </mxCell>
        <mxCell id="0K9JD2yo25mYzbsArlmn-28" value="Não" style="text;html=1;align=center;verticalAlign=middle;whiteSpace=wrap;rounded=0;" vertex="1" parent="1">
          <mxGeometry x="220" y="1000" width="60" height="30" as="geometry" />
        </mxCell>
        <mxCell id="0K9JD2yo25mYzbsArlmn-32" style="edgeStyle=orthogonalEdgeStyle;rounded=0;orthogonalLoop=1;jettySize=auto;html=1;" edge="1" parent="1" source="0K9JD2yo25mYzbsArlmn-31">
          <mxGeometry relative="1" as="geometry">
            <mxPoint x="-140" y="970" as="targetPoint" />
          </mxGeometry>
        </mxCell>
        <mxCell id="0K9JD2yo25mYzbsArlmn-31" value="Funcionou?" style="rhombus;whiteSpace=wrap;html=1;" vertex="1" parent="1">
          <mxGeometry x="50" y="980" width="128" height="130" as="geometry" />
        </mxCell>
        <mxCell id="0K9JD2yo25mYzbsArlmn-33" value="Funcionando&amp;nbsp;&lt;div&gt;como deveria&lt;/div&gt;" style="rounded=0;whiteSpace=wrap;html=1;" vertex="1" parent="1">
          <mxGeometry x="-410" y="886" width="120" height="60" as="geometry" />
        </mxCell>
        <mxCell id="0K9JD2yo25mYzbsArlmn-34" style="edgeStyle=orthogonalEdgeStyle;rounded=0;orthogonalLoop=1;jettySize=auto;html=1;entryX=-0.007;entryY=0.515;entryDx=0;entryDy=0;entryPerimeter=0;" edge="1" parent="1" source="sAC3qodJ_5JCvwNrrxv2-67" target="0K9JD2yo25mYzbsArlmn-33">
          <mxGeometry relative="1" as="geometry">
            <Array as="points">
              <mxPoint x="-492" y="917" />
            </Array>
          </mxGeometry>
        </mxCell>
        <mxCell id="0K9JD2yo25mYzbsArlmn-35" style="edgeStyle=orthogonalEdgeStyle;rounded=0;orthogonalLoop=1;jettySize=auto;html=1;entryX=-0.048;entryY=0.535;entryDx=0;entryDy=0;entryPerimeter=0;" edge="1" parent="1" source="0K9JD2yo25mYzbsArlmn-33" target="0K9JD2yo25mYzbsArlmn-10">
          <mxGeometry relative="1" as="geometry" />
        </mxCell>
        <mxCell id="0K9JD2yo25mYzbsArlmn-38" value="Não" style="text;html=1;align=center;verticalAlign=middle;whiteSpace=wrap;rounded=0;" vertex="1" parent="1">
          <mxGeometry x="260" y="840" width="60" height="30" as="geometry" />
        </mxCell>
        <mxCell id="0K9JD2yo25mYzbsArlmn-39" value="Sim" style="text;html=1;align=center;verticalAlign=middle;whiteSpace=wrap;rounded=0;" vertex="1" parent="1">
          <mxGeometry x="-86" y="1020" width="60" height="30" as="geometry" />
        </mxCell>
        <mxCell id="0K9JD2yo25mYzbsArlmn-40" value="Sim" style="text;html=1;align=center;verticalAlign=middle;whiteSpace=wrap;rounded=0;" vertex="1" parent="1">
          <mxGeometry x="-488" y="880" width="60" height="30" as="geometry" />
        </mxCell>
        <mxCell id="0K9JD2yo25mYzbsArlmn-42" style="edgeStyle=orthogonalEdgeStyle;rounded=0;orthogonalLoop=1;jettySize=auto;html=1;entryX=0.508;entryY=-0.024;entryDx=0;entryDy=0;entryPerimeter=0;" edge="1" parent="1" source="0K9JD2yo25mYzbsArlmn-25" target="0K9JD2yo25mYzbsArlmn-31">
          <mxGeometry relative="1" as="geometry" />
        </mxCell>
        <mxCell id="0K9JD2yo25mYzbsArlmn-43" style="edgeStyle=orthogonalEdgeStyle;rounded=0;orthogonalLoop=1;jettySize=auto;html=1;entryX=0.64;entryY=-0.062;entryDx=0;entryDy=0;entryPerimeter=0;" edge="1" parent="1" source="0K9JD2yo25mYzbsArlmn-18" target="0K9JD2yo25mYzbsArlmn-17">
          <mxGeometry relative="1" as="geometry" />
        </mxCell>
        <mxCell id="0K9JD2yo25mYzbsArlmn-44" value="Sim" style="text;html=1;align=center;verticalAlign=middle;whiteSpace=wrap;rounded=0;" vertex="1" parent="1">
          <mxGeometry x="438" y="960" width="60" height="30" as="geometry" />
        </mxCell>
        <mxCell id="0K9JD2yo25mYzbsArlmn-45" style="edgeStyle=orthogonalEdgeStyle;rounded=0;orthogonalLoop=1;jettySize=auto;html=1;entryX=-0.021;entryY=0.487;entryDx=0;entryDy=0;entryPerimeter=0;" edge="1" parent="1" source="0K9JD2yo25mYzbsArlmn-31" target="0K9JD2yo25mYzbsArlmn-17">
          <mxGeometry relative="1" as="geometry" />
        </mxCell>
        <mxCell id="0K9JD2yo25mYzbsArlmn-46" value="Não" style="text;html=1;align=center;verticalAlign=middle;whiteSpace=wrap;rounded=0;" vertex="1" parent="1">
          <mxGeometry x="260" y="385" width="60" height="30" as="geometry" />
        </mxCell>
      </root>
    </mxGraphModel>
  </diagram>
</mxfile>
